# xmcd
#
# Track frame offsets:
#	150
#	11721
#	23689
#	35224
#	46631
#	57854
#	68506
#	78729
#	88781
#	99823
#	110820
#	121431
#	133872
#	142978
#	154655
#	164663
#	174385
#	184520
#	193613
#	202506
#	211169
#	223764
#	231663
#	241669
#	249790
#	260338
#	269862
#	280157
#	288847
#
# Disc length: 3966 seconds
#
# Revision: 0
# Processed by: cddbd v1.5.2PL0 Copyright (c) Steve Scherf et al.
# Submitted via: EasyCDDAExtractor 2010.6.0.0
#
DISCID=9c0f7c1d
DTITLE=Various Artist - Better Stop Look And Listen
DYEAR=1900
DGENRE=
TTITLE0=George McCormick - Fifty-Fifty Honky Tonkin'
TTITLE1=George McCormick - I Guess You Don't Care
TTITLE2=George McCormick - Hi There Sweet Thing
TTITLE3=George McCormick - Don't Add An Ex To Your Name
TTITLE4=George McCormick - Sundown Train
TTITLE5=George McCormick - Your High Tone Ways
TTITLE6=George McCormick - I'm Just Passing Through
TTITLE7=George McCormick - Flutter Bug
TTITLE8=George McCormick - Gold Wedding Band
TTITLE9=George McCormick - I Don't Know Nothing About Nothing
TTITLE10=George McCormick - Don't Fix Up The Doghouse
TTITLE11=George McCormick - I'll Keep Your Name On File
TTITLE12=George And Earl - If You) Got Anything Good (You Better Save It Save 
TTITLE12=It)
TTITLE13=George And Earl - Sweet Little Miss Blue Eyes
TTITLE14=George And Earl - Going Steady With The Blues
TTITLE15=George And Earl - Can I
TTITLE16=George And Earl - All You've Given Me Is) Heartaches
TTITLE17=George And Earl - Take A Look At My Darlin'
TTITLE18=George And Earl - Cry Baby Cry
TTITLE19=George And Earl - Don't Don't Don't (Take 5)
TTITLE20=George And Earl - Remember And Regret
TTITLE21=George And Earl - Eleven Roses (And The Twelfth Is You)
TTITLE22=George And Earl - Done Gone
TTITLE23=George And Earl - Better Stop Look And Listen
TTITLE24=George McCormick - Blues Moved In This Morning
TTITLE25=George McCormick - After All We've Been Through
TTITLE26=George McCormick - Doubt
TTITLE27=George And Earl - Don't Don't Don't (Take 2)
TTITLE28=George And Earl - Don't Don't Don't (Take 3)
EXTD=
EXTT0=
EXTT1=
EXTT2=
EXTT3=
EXTT4=
EXTT5=
EXTT6=
EXTT7=
EXTT8=
EXTT9=
EXTT10=
EXTT11=
EXTT12=
EXTT13=
EXTT14=
EXTT15=
EXTT16=
EXTT17=
EXTT18=
EXTT19=
EXTT20=
EXTT21=
EXTT22=
EXTT23=
EXTT24=
EXTT25=
EXTT26=
EXTT27=
EXTT28=
PLAYORDER=
